<svg width="1920" height="600" viewBox="0 0 1920 600" fill="none" xmlns="http://www.w3.org/2000/svg">
<rect width="1920" height="600" fill="#FFE8D2"/>
<g clip-path="url(#clip0)">
<rect width="1920" height="320" transform="translate(0 280)" fill="#FFE8D2"/>
<path d="M0 416L64 437.3C128 459 256 501 384 517.3C512 533 640 523 768 528C896 533 1024 555 1152 549.3C1280 544 1408 512 1536 512C1664 512 1792 544 1856 560L1920 576V608H1856C1792 608 1664 608 1536 608C1408 608 1280 608 1152 608C1024 608 896 608 768 608C640 608 512 608 384 608C256 608 128 608 64 608H0V416Z" fill="url(#paint0_linear)"/>
</g>
<path d="M1306.31 308.297L1500.69 404.734L1796.95 255.502L1602.82 158.411L1306.31 308.297Z" fill="#FFC98B"/>
<path d="M1541.09 343.725L1605.53 297.186L1581.06 284.946L1501.19 324.753C1511.11 330.043 1531.32 338.271 1541.09 343.725Z" fill="url(#paint1_linear)"/>
<path d="M1642.57 309.698L1714.7 273.889L1650.95 239.44L1571.09 279.234C1580.98 284.456 1632.79 304.258 1642.57 309.698Z" fill="url(#paint2_linear)"/>
<path d="M1428.69 278.54L1365.58 311.289C1364.77 311.704 1364.09 312.294 1363.63 313.003C1363.16 313.711 1362.92 314.513 1362.92 315.328C1362.92 316.143 1363.16 316.945 1363.63 317.653C1364.09 318.362 1364.77 318.952 1365.58 319.367L1478.8 376.392C1481.03 377.51 1483.57 378.058 1486.14 377.974C1488.71 377.89 1491.19 377.176 1493.31 375.916L1548.56 343.018C1549.63 342.395 1550.49 341.546 1551.07 340.551C1551.65 339.556 1551.93 338.449 1551.87 337.336C1551.82 336.222 1551.43 335.14 1550.76 334.191C1550.08 333.243 1549.13 332.461 1548.01 331.92L1439.98 278.377C1438.25 277.541 1436.29 277.115 1434.31 277.144C1432.33 277.173 1430.39 277.654 1428.69 278.54V278.54Z" fill="#B1A9FF"/>
<path d="M1374.48 306.624L1501.55 370.666L1518.21 360.834L1391.23 297.934L1374.48 306.624Z" fill="#124577"/>
<path d="M1522.97 343.711C1529.44 343.711 1534.68 341.081 1534.68 337.836C1534.68 334.591 1529.44 331.961 1522.97 331.961C1516.5 331.961 1511.26 334.591 1511.26 337.836C1511.26 341.081 1516.5 343.711 1522.97 343.711Z" fill="#124577"/>
<path d="M1513.45 338.802C1519.92 338.802 1525.17 336.171 1525.17 332.926C1525.17 329.682 1519.92 327.051 1513.45 327.051C1506.99 327.051 1501.74 329.682 1501.74 332.926C1501.74 336.171 1506.99 338.802 1513.45 338.802Z" fill="#FF3174"/>
<path d="M1535.45 139.915C1528.12 128.129 1520.19 116.709 1511.65 105.657C1510.9 104.691 1509.07 105.657 1509.84 106.582C1518.42 117.661 1526.35 129.081 1533.64 140.84C1534.29 141.86 1536.11 140.935 1535.45 139.915Z" fill="#FF3174"/>
<path d="M1551.98 53.7864C1533.64 63.1976 1488.29 86.4264 1474.72 93.2264C1473.57 93.8086 1472.61 94.6448 1471.95 95.6502C1471.29 96.6557 1470.94 97.7947 1470.95 98.952V260.37C1470.67 263.662 1474.97 266.708 1478.47 264.981L1554.76 227.363C1556.25 226.757 1557.52 225.796 1558.41 224.593C1559.3 223.389 1559.77 221.992 1559.78 220.563V57.6352C1559.79 56.8449 1559.54 56.0687 1559.09 55.3854C1558.63 54.7022 1557.97 54.1363 1557.18 53.7452C1556.38 53.3542 1555.48 53.152 1554.57 53.1592C1553.66 53.1665 1552.77 53.3829 1551.98 53.7864V53.7864Z" fill="#3944CF"/>
<path d="M1559.27 55.6904L1534.99 67.8352V72.3232C1535 72.7008 1534.88 73.0718 1534.66 73.3989C1534.45 73.726 1534.13 73.9976 1533.75 74.1864L1515.18 83.4752C1514.94 83.6232 1514.65 83.7079 1514.35 83.7195C1514.05 83.7311 1513.76 83.6691 1513.5 83.5407C1513.24 83.4124 1513.03 83.223 1512.89 82.9946C1512.75 82.7663 1512.69 82.5084 1512.72 82.2512V78.96L1477.85 96.64C1477.51 96.8079 1477.24 97.0479 1477.05 97.3365C1476.85 97.6251 1476.75 97.9522 1476.75 98.2856V259.595C1476.76 259.818 1476.85 260.034 1476.98 260.224C1477.12 260.413 1477.31 260.571 1477.53 260.683C1477.75 260.794 1478.01 260.856 1478.26 260.864C1478.52 260.871 1478.78 260.823 1479.01 260.724L1559.77 220.169C1559.91 221.419 1559.65 222.677 1559.02 223.81C1558.4 224.943 1557.43 225.908 1556.22 226.602C1552.04 228.914 1478.46 264.967 1478.46 264.967C1478.46 264.967 1472.63 267.252 1470.94 261.227V99.02C1470.92 97.9621 1471.2 96.9164 1471.75 95.9701C1472.29 95.0238 1473.09 94.2043 1474.08 93.58C1477.45 91.4584 1551.97 53.732 1551.97 53.732C1552.59 53.4299 1553.28 53.2407 1553.99 53.1759C1554.7 53.1112 1555.42 53.1722 1556.1 53.3554C1556.78 53.5385 1557.42 53.84 1557.96 54.2414C1558.51 54.6427 1558.95 55.1357 1559.27 55.6904V55.6904Z" fill="#124577"/>
<path d="M1477.85 96.64C1477.85 96.64 1495.98 103.209 1495.7 132.258L1473.58 122.48V96.64H1477.85Z" fill="#FF3174"/>
<path d="M1509.76 110.893C1507.52 103.957 1479.18 92.764 1479.18 92.764L1473.58 95.484V104.542C1479.75 107.262 1487.09 111.342 1490.85 116.115C1497.93 125.268 1494.19 131.442 1494.19 131.442C1494.32 131.946 1501.1 134.734 1506.86 131.442C1512.62 128.151 1512.01 117.829 1509.76 110.893Z" fill="#FF3174"/>
<path d="M1571.95 93.92C1571.95 93.92 1575.69 87.7456 1568.61 78.6064C1561.53 69.4672 1541.09 63.0208 1541.09 63.0208L1557.02 55.2144C1557.02 55.2144 1585.36 66.4072 1587.61 73.3432C1589.85 80.2792 1590.4 90.7648 1584.62 93.92C1578.84 97.0752 1571.95 93.92 1571.95 93.92Z" fill="#FFE8D2"/>
<path d="M1455.95 287.38L1505.1 263.566L1526.55 269.142L1492.45 291.718L1471.57 299.566L1455.95 287.38Z" fill="#124577"/>
<path d="M1473.51 296.098L1526.55 269.142L1530.5 312.336L1476.31 339.686L1473.51 296.098Z" fill="#3944CF"/>
<path d="M1473.51 296.098L1455.95 287.38L1454.42 328.384L1476.31 339.686" fill="#3944CF"/>
<path opacity="0.51" d="M1473.51 296.098L1455.95 287.38L1454.42 328.384L1476.31 339.686" fill="#124577"/>
<path d="M1511.02 277.03C1511.02 277.03 1508.7 261.526 1495.65 264.015C1482.6 266.504 1486.04 289.855 1486.04 289.855L1482.59 291.501C1482.59 291.501 1476.97 270.407 1490.22 263.58C1503.47 256.753 1512.83 267.782 1514.1 275.466" fill="#FFE8D2"/>
<path d="M1469.68 280.73C1469.68 280.73 1465.08 263.852 1480.67 259.296C1496.26 254.74 1498.04 267.007 1498.04 267.007L1493.63 269.142C1493.63 269.142 1493.63 259.622 1482.31 261.431C1470.99 263.24 1473.51 278.88 1473.51 278.88" fill="#FFE8D2"/>
<path d="M1674.21 258.562V226.792L1707.04 210.88V242.391L1674.21 258.562Z" fill="#ECA016"/>
<path d="M1674.21 226.792L1642.21 210.88C1642.21 210.88 1641.32 242.908 1642.21 243.425C1643.1 243.942 1674.16 258.548 1674.16 258.548L1674.21 226.792Z" fill="#FFB72F"/>
<path d="M1642.26 210.907L1674.21 193.989L1707.04 210.907L1674.21 226.792L1642.26 210.907Z" fill="#FFC863"/>
<path d="M1654.42 204.461L1687.68 220.264V236.842L1697.24 232.667V215.64L1663.99 199.402L1654.42 204.461Z" fill="#FDEDCB"/>
<path d="M1709.97 275.874V244.105L1742.8 228.22V259.731L1709.97 275.874Z" fill="#ECA016"/>
<path d="M1709.97 244.105L1678.02 228.22C1678.02 228.22 1677.13 260.248 1678.02 260.765C1678.92 261.282 1709.97 275.888 1709.97 275.888V244.105Z" fill="#FFB72F"/>
<path d="M1678.02 228.22L1709.97 211.315L1742.8 228.22L1709.97 244.105L1678.02 228.22Z" fill="#FFC863"/>
<path d="M1690.19 221.787L1723.44 237.59V254.169L1733 249.994V232.966L1699.75 216.714L1690.19 221.787Z" fill="#FDEDCB"/>
<path d="M1694.93 237.74V205.97L1727.76 190.086V221.597L1694.93 237.74Z" fill="#ECA016"/>
<path d="M1694.93 205.97L1662.98 190.086C1662.98 190.086 1662.09 222.114 1662.98 222.63C1663.88 223.147 1694.93 237.754 1694.93 237.754V205.97Z" fill="#FFB72F"/>
<path d="M1663 190.086L1694.93 173.167L1727.77 190.086L1694.93 205.97L1663 190.086Z" fill="#FFC863"/>
<path d="M1675.16 183.639L1708.42 199.442V216.021L1717.98 211.846V194.818L1684.73 178.58L1675.16 183.639Z" fill="#FDEDCB"/>
<path d="M1555.75 101.563C1555.75 101.563 1559.49 95.3888 1552.41 86.2496C1545.33 77.1104 1524.88 70.664 1524.88 70.664L1540.82 62.8576C1540.82 62.8576 1569.16 74.0504 1571.4 80.9864C1573.65 87.9224 1574.24 98.4624 1568.44 101.577C1562.63 104.691 1555.75 101.563 1555.75 101.563Z" fill="#FF3174"/>
<path d="M1540.16 109.22C1540.16 109.22 1543.9 103.046 1536.82 93.9064C1529.74 84.7672 1509.29 78.3208 1509.29 78.3208L1525.23 70.5144C1525.23 70.5144 1553.54 81.68 1555.86 88.6296C1558.18 95.5792 1558.7 106.106 1552.89 109.22C1547.08 112.334 1540.16 109.22 1540.16 109.22Z" fill="#FFE8D2"/>
<path d="M1524.85 116.646C1524.85 116.646 1528.59 110.471 1521.51 101.332C1514.43 92.1928 1493.97 85.76 1493.97 85.76L1509.91 77.9536C1509.91 77.9536 1538.24 89.1464 1540.49 96.0824C1542.73 103.018 1543.33 113.558 1537.52 116.673C1531.71 119.787 1524.85 116.646 1524.85 116.646Z" fill="#FF3174"/>
<path d="M1510.88 125.2C1510.88 125.2 1512.92 118.114 1505.84 108.962C1498.76 99.8088 1478.3 93.4032 1478.3 93.4032L1494.24 85.5968C1494.24 85.5968 1522.58 96.776 1524.82 103.712C1527.07 110.648 1527.6 121.12 1521.85 124.302C1520.24 125.209 1518.41 125.764 1516.49 125.92C1514.58 126.076 1512.66 125.829 1510.88 125.2Z" fill="#FFE8D2"/>
<path d="M1496.33 143.859V178.417C1496.32 179.215 1496.55 180.001 1497.01 180.693C1497.47 181.385 1498.13 181.959 1498.93 182.356C1499.73 182.752 1500.64 182.956 1501.56 182.948C1502.48 182.939 1503.39 182.718 1504.18 182.306L1541.97 163.402C1543.15 162.806 1544.13 161.952 1544.81 160.927C1545.49 159.901 1545.85 158.738 1545.86 157.554V122.643C1545.86 121.847 1545.62 121.065 1545.16 120.377C1544.7 119.688 1544.04 119.118 1543.24 118.725C1542.44 118.332 1541.53 118.13 1540.61 118.14C1539.7 118.15 1538.8 118.371 1538.01 118.781L1500.08 138.229C1498.94 138.804 1498 139.625 1497.34 140.613C1496.68 141.6 1496.33 142.719 1496.33 143.859V143.859Z" fill="#FFE8D2"/>
<path d="M1496.33 195.145V229.702C1496.32 230.501 1496.55 231.286 1497.01 231.979C1497.47 232.671 1498.13 233.245 1498.93 233.641C1499.73 234.037 1500.64 234.242 1501.56 234.233C1502.48 234.225 1503.39 234.003 1504.18 233.592L1541.97 214.688C1543.15 214.091 1544.13 213.238 1544.81 212.212C1545.49 211.186 1545.85 210.024 1545.86 208.84V173.915C1545.86 173.119 1545.62 172.337 1545.16 171.649C1544.7 170.96 1544.04 170.39 1543.24 169.997C1542.44 169.604 1541.53 169.402 1540.61 169.412C1539.7 169.422 1538.8 169.643 1538.01 170.053L1500.08 189.501C1498.94 190.077 1497.99 190.901 1497.34 191.891C1496.68 192.881 1496.33 194.002 1496.33 195.145V195.145Z" fill="#FFE8D2"/>
<path d="M1515.39 139.371L1529.14 133.061L1534.38 160.778L1526.23 164.531L1523.75 147.49L1524.52 165.538L1514.6 170.27L1515.39 139.371Z" fill="#124577"/>
<path d="M1515.39 190.725L1529.14 184.428L1534.38 212.131L1526.23 215.885L1523.75 198.844L1524.52 216.891L1514.6 221.624L1515.39 190.725Z" fill="#614CD4"/>
<path d="M1507.76 173.309C1508.44 171.26 1507.76 169.287 1506.22 168.903C1504.69 168.518 1502.89 169.868 1502.21 171.917C1501.52 173.966 1502.21 175.938 1503.74 176.323C1505.27 176.707 1507.07 175.358 1507.76 173.309Z" fill="#124577"/>
<path d="M1506.59 224.503C1507.27 222.454 1506.59 220.481 1505.05 220.097C1503.52 219.713 1501.72 221.062 1501.04 223.111C1500.35 225.16 1501.04 227.132 1502.57 227.517C1504.11 227.901 1505.9 226.552 1506.59 224.503Z" fill="#614CD4"/>
<path d="M1575 289.869C1575 290.086 1569.85 300.259 1568.72 300.898C1567.59 301.538 1564.01 299.538 1562.77 300.667C1561.53 301.796 1559.97 304.19 1562.67 305.182C1565.37 306.175 1573.41 307.127 1574.86 306.542C1576.26 305.88 1577.59 305.101 1578.83 304.217C1578.83 304.217 1579.58 298.777 1580.4 299.511C1581.22 300.246 1580.93 306.148 1581.53 306.311C1582.33 306.336 1583.13 306.235 1583.88 306.012L1583.12 288.808" fill="#FF3174"/>
<path d="M1597.31 280.73C1597.31 280.947 1591.73 290.957 1590.54 291.61C1589.35 292.262 1585.83 290.114 1584.61 291.202C1583.38 292.29 1581.67 294.629 1584.34 295.717C1587.01 296.805 1594.98 297.988 1596.46 297.485C1597.89 296.866 1599.26 296.128 1600.53 295.282C1600.53 295.282 1601.5 289.842 1602.32 290.63C1603.13 291.419 1602.58 297.281 1603.18 297.43C1603.97 297.482 1604.77 297.408 1605.53 297.213V279.995" fill="#FF3174"/>
<path d="M1577.68 196.342C1577.68 196.342 1561.26 269.21 1562.61 286.102C1562.61 286.102 1565.86 297.39 1594.09 293.622C1594.09 293.622 1596.54 285.163 1595.44 270.815C1594.34 256.467 1591.37 196.301 1591.37 196.301L1577.68 196.342Z" fill="#614CD4"/>
<path d="M1580.65 282.457L1584.9 195.498L1601.89 194.138C1601.89 194.138 1609.24 216.551 1607.67 227.363C1606.1 238.175 1609.57 252.51 1610.39 260.003C1611.12 266.803 1611.41 278.418 1608.72 283.64C1599.44 285.729 1589.65 285.317 1580.65 282.457Z" fill="#614CD4"/>
<path d="M1595.28 289.529C1596.59 284.077 1597.54 278.564 1598.12 273.018C1598.34 270.302 1598.34 267.575 1598.12 264.858C1597.83 262.065 1597.37 259.286 1596.74 256.535C1595.77 251.595 1595.51 246.57 1595.97 241.575C1596.41 236.448 1597.32 231.362 1597.89 226.248C1598.72 220.493 1598.51 214.659 1597.25 208.962C1597.06 208.228 1598.36 207.915 1598.55 208.65C1601.17 218.863 1598.64 229.213 1597.54 239.454C1596.86 244.739 1596.98 250.079 1597.89 255.338C1598.38 257.909 1598.99 260.466 1599.3 263.063C1599.62 265.842 1599.7 268.638 1599.52 271.427C1599.01 277.613 1598 283.761 1596.51 289.828C1596.43 290.59 1595.11 290.263 1595.28 289.529Z" fill="#FFE8D2"/>
<path d="M1597.14 164.858C1595.33 164.64 1562.14 144.961 1561.14 145.736C1560.13 146.511 1555.97 156.371 1560.84 160.057C1565.7 163.742 1595.25 178.879 1595.25 178.879" fill="#EA1B66"/>
<path d="M1602.65 169.033L1588.83 158.37C1587.26 158.887 1577.48 157.976 1575.23 163.579C1573.77 167.224 1573.26 171.821 1572.55 174.378C1572.55 174.527 1574.72 175.248 1574.73 175.425C1575.49 181.056 1575.39 186.749 1574.43 192.357C1575.69 192.189 1576.9 191.816 1578 191.255C1578 191.255 1577.24 196.219 1578 197.729C1578.75 199.238 1597.1 201.074 1601.34 196.369C1605.58 191.663 1602.65 169.033 1602.65 169.033Z" fill="#FF3174"/>
<path d="M1547.07 142.472C1547.07 142.422 1547.07 142.372 1547.07 142.322C1546.88 141.878 1546.73 141.424 1546.61 140.962C1546.58 140.852 1546.51 140.751 1546.42 140.67C1546.33 140.589 1546.21 140.53 1546.08 140.5C1545.96 140.47 1545.82 140.469 1545.7 140.497C1545.57 140.526 1545.45 140.583 1545.36 140.663C1545.21 140.739 1545.09 140.853 1545.03 140.99C1544.88 141.314 1544.8 141.66 1544.79 142.01C1544.77 142.24 1544.77 142.473 1544.79 142.703V142.703C1544.96 143.284 1545.26 143.828 1545.69 144.298C1546.12 144.767 1546.66 145.151 1547.27 145.423C1547.27 145.423 1546.02 146.13 1546.08 146.171C1544.89 147.83 1545.67 149.639 1546.83 151.366C1546.99 151.324 1547.15 151.324 1547.3 151.366C1548.77 151.809 1550.27 152.168 1551.79 152.441C1552.99 152.688 1554.21 152.861 1555.44 152.958C1556.69 153.046 1557.91 153.351 1559.03 153.855C1559.11 152.032 1559.33 150.215 1559.68 148.415C1555.29 146.742 1551.07 144.754 1547.07 142.472V142.472Z" fill="#F7931E"/>
<path d="M1547.16 147.586C1547.46 147.205 1546.75 146.865 1546.46 147.232C1546.21 147.545 1546 147.883 1545.84 148.238C1545.58 148.719 1545.43 149.243 1545.42 149.775C1545.41 149.898 1545.41 150.02 1545.42 150.142C1545.42 150.142 1545.42 150.142 1545.42 150.142C1545.41 150.192 1545.41 150.243 1545.42 150.292C1545.44 150.418 1545.49 150.538 1545.57 150.645C1545.65 150.753 1545.75 150.845 1545.87 150.918C1546.36 151.135 1546.77 150.686 1546.94 150.346C1547.19 149.867 1547.31 149.347 1547.29 148.823C1547.29 148.429 1547.29 147.926 1546.97 147.667L1547.16 147.586Z" fill="#F7931E"/>
<path d="M1558.32 153.243C1557.18 152.651 1555.87 152.337 1554.54 152.332C1552.74 152.332 1550.95 152.726 1549.83 151.19C1549.11 150.265 1549.2 149.204 1548.26 148.47C1548.03 148.305 1547.79 148.151 1547.54 148.007L1547.04 147.708C1546.89 147.655 1546.75 147.576 1546.64 147.475C1546.53 147.374 1546.45 147.254 1546.39 147.123C1546.36 147.009 1546.36 146.89 1546.39 146.775C1546.42 146.661 1546.48 146.554 1546.57 146.464C1546.66 146.374 1546.77 146.303 1546.89 146.257C1547.02 146.211 1547.15 146.191 1547.29 146.198C1547.64 146.239 1547.98 146.346 1548.28 146.511H1548.36C1548.94 146.688 1549.5 146.906 1550.07 147.137C1550.63 147.368 1550.95 146.715 1550.47 146.525C1549.36 146.062 1546.88 144.798 1545.76 145.954C1545.61 146.098 1545.5 146.277 1545.45 146.471C1545.4 146.665 1545.41 146.867 1545.48 147.055C1545.23 147.716 1545.05 148.394 1544.93 149.082C1544.77 149.561 1544.77 150.071 1544.93 150.55C1545.07 150.829 1545.32 151.058 1545.63 151.201C1545.94 151.344 1546.3 151.393 1546.64 151.339C1546.68 151.491 1546.75 151.638 1546.83 151.774C1547.11 152.112 1547.51 152.349 1547.98 152.442C1548.44 152.535 1548.93 152.477 1549.34 152.278C1549.41 152.257 1549.47 152.217 1549.5 152.165C1549.54 152.114 1549.56 152.053 1549.55 151.992C1549.96 152.374 1550.45 152.676 1551.01 152.876C1551.95 153.136 1552.95 153.197 1553.93 153.053C1555.34 152.951 1556.74 153.226 1557.96 153.842C1558.05 153.855 1558.14 153.845 1558.22 153.811C1558.29 153.778 1558.36 153.724 1558.4 153.658C1558.44 153.591 1558.45 153.514 1558.44 153.44C1558.43 153.365 1558.39 153.296 1558.32 153.243V153.243ZM1546.44 150.646H1546.36C1546.05 150.89 1545.53 150.047 1545.5 149.925C1545.47 149.566 1545.52 149.205 1545.66 148.864C1545.66 148.497 1545.83 148.13 1545.95 147.776C1546.25 148.019 1546.57 148.246 1546.9 148.456C1546.66 149.171 1546.51 149.904 1546.44 150.646ZM1548.8 151.706C1547.7 152.114 1547.23 151.312 1547.33 150.482C1547.38 149.979 1547.46 149.479 1547.59 148.986L1547.77 149.15C1548.48 149.884 1548.48 150.904 1549.11 151.679C1549.02 151.666 1548.94 151.675 1548.86 151.706H1548.8Z" fill="#42210B"/>
<path d="M1579.08 140.5C1578.04 141.071 1578.08 155.365 1582.77 157.133C1588.89 159.431 1593.76 153.162 1594.39 149.789C1595.02 146.416 1591.17 133.863 1579.08 140.5Z" fill="#F7931E"/>
<path d="M1611.41 163.525C1610.53 163.029 1609.79 162.375 1609.24 161.607C1608.91 160.66 1608.78 159.67 1608.85 158.683C1608.69 156.276 1607.97 153.706 1605.39 152.386C1603.82 151.543 1601.42 152.278 1600.06 151.026C1598.69 149.775 1599.02 147.395 1598.8 145.586C1597.7 136.243 1581.83 134.557 1576.71 142.159C1575.86 143.357 1575.59 144.792 1575.94 146.163C1576.28 147.535 1577.23 148.736 1578.58 149.517C1579.34 149.959 1580.2 150.251 1581.11 150.374C1582.42 150.55 1583.71 150.523 1584.25 151.734C1585.09 153.583 1583.54 155.487 1582.77 157.174C1581.58 159.73 1581.2 163.389 1584.07 165.238C1585.53 165.961 1587.13 166.463 1588.78 166.721C1589.47 166.852 1590.11 167.155 1590.6 167.591C1591.37 168.421 1590.89 169.577 1590.73 170.515C1590.63 171.015 1590.63 171.525 1590.73 172.025C1590.64 172.496 1590.67 172.979 1590.82 173.438C1590.97 173.897 1591.24 174.32 1591.61 174.677C1593.34 176.486 1596.51 176.554 1599 176.445C1601.91 176.312 1604.77 175.703 1607.42 174.65C1609.76 173.725 1612.65 172.31 1613.84 170.257C1615.24 167.741 1613.62 165.17 1611.41 163.525Z" fill="#42210B"/>
<path d="M1590.87 238.842L1559.83 223.814L1546.3 227.336L1567.82 241.575L1581.01 246.539L1590.87 238.842Z" fill="#124577"/>
<path d="M1579.79 244.35L1546.3 227.336L1543.8 254.604L1578.01 271.862L1579.79 244.35Z" fill="#3944CF"/>
<path d="M1579.79 244.35L1590.87 238.842L1591.83 264.722L1578.01 271.862" fill="#3944CF"/>
<path d="M1556.1 232.314C1556.1 232.314 1557.56 222.522 1565.8 224.154C1574.04 225.786 1571.86 240.474 1571.86 240.474L1574.04 241.507C1574.04 241.507 1577.59 228.193 1569.22 223.827C1560.85 219.462 1554.95 226.479 1554.15 231.334" fill="#FFE8D2"/>
<path d="M1581.28 234.204C1581.03 232.178 1580.05 230.272 1578.48 228.754C1576.91 227.236 1574.83 226.183 1572.53 225.745L1572.77 227.962C1572.77 227.962 1576.76 228.234 1579.14 233.17L1581.28 234.204Z" fill="#FFE8D2"/>
<path d="M1575.8 211.098C1574.5 211.098 1576.44 197.28 1573.73 207.398C1573.33 208.396 1572.61 209.275 1571.65 209.93C1570.69 210.585 1569.54 210.99 1568.33 211.098C1568.14 211.37 1567.01 213.178 1565.86 215.001C1564.71 218.414 1563.57 221.801 1562.6 225.255C1562.76 225.556 1562.86 225.886 1562.86 226.221C1562.88 226.841 1562.95 227.46 1563.08 228.07C1563.38 229.308 1564.18 230.423 1565.81 229.852C1566.05 229.771 1566.26 229.661 1566.46 229.526C1566.56 229.74 1566.72 229.933 1566.91 230.092C1567.1 230.252 1567.34 230.376 1567.59 230.455C1567.84 230.534 1568.11 230.567 1568.38 230.552C1568.64 230.538 1568.9 230.475 1569.14 230.369C1569.42 230.256 1569.66 230.095 1569.86 229.896C1570.05 229.697 1570.2 229.464 1570.29 229.213C1570.54 229.391 1570.85 229.488 1571.18 229.488C1571.5 229.488 1571.81 229.391 1572.06 229.213C1572.47 228.904 1572.73 228.471 1572.78 228.002C1573.08 228.019 1573.37 227.972 1573.63 227.866C1574.89 227.377 1575.2 225.867 1575.34 224.82C1575.78 220.256 1575.93 215.675 1575.8 211.098V211.098Z" fill="#F7931E"/>
<path d="M1564.48 214.525C1563.49 216.134 1562.64 217.802 1561.92 219.516C1561.46 221.039 1562.3 221.257 1563.82 221.801C1564.68 222.114 1565.08 221.026 1564.42 220.59C1564.59 220.562 1564.74 220.485 1564.85 220.371C1564.96 220.257 1565.02 220.114 1565.03 219.965C1565.06 219.169 1565.27 218.386 1565.63 217.653C1565.63 217.571 1565.7 217.49 1565.74 217.394C1565.77 217.311 1565.78 217.222 1565.76 217.135C1565.75 217.048 1565.71 216.965 1565.66 216.891L1565.85 216.578C1565.9 216.504 1565.93 216.421 1565.95 216.335C1565.96 216.249 1565.95 216.161 1565.93 216.077C1565.9 215.993 1565.86 215.914 1565.79 215.846C1565.73 215.778 1565.65 215.722 1565.56 215.681C1565.7 215.422 1565.85 215.164 1565.97 214.906C1566.39 214.076 1564.87 213.722 1564.48 214.525Z" fill="#F7931E"/>
<path d="M1578.53 217.898C1580.82 209.833 1584.92 178.458 1584.92 178.458L1572.52 174.378C1572.52 174.378 1562.09 213.246 1562.52 215.953C1565.58 217.843 1574.86 218.727 1578.53 217.898Z" fill="#FF3174"/>
<path d="M326.617 231.93C330.227 231.93 333.438 232.246 336.25 232.879C339.086 233.512 341.477 234.391 343.422 235.516C345.391 236.641 346.891 238 347.922 239.594C348.953 241.164 349.469 242.898 349.469 244.797V249.93C349.469 251.945 349.07 253.574 348.273 254.816C347.5 256.059 346.422 257.055 345.039 257.805C346.188 258.133 347.242 258.555 348.203 259.07C349.188 259.586 350.02 260.219 350.699 260.969C351.402 261.695 351.941 262.551 352.316 263.535C352.715 264.496 352.914 265.609 352.914 266.875V273.766C352.914 275.664 352.223 277.41 350.84 279.004C349.457 280.574 347.57 281.934 345.18 283.082C342.789 284.23 340 285.121 336.812 285.754C333.625 286.387 330.227 286.703 326.617 286.703C324.602 286.703 322.539 286.621 320.43 286.457C318.32 286.316 316.27 286.117 314.277 285.859C312.309 285.602 310.457 285.309 308.723 284.98C306.988 284.652 305.5 284.312 304.258 283.961V234.602C305.5 234.25 306.988 233.922 308.723 233.617C310.457 233.289 312.309 233.008 314.277 232.773C316.27 232.516 318.32 232.316 320.43 232.176C322.539 232.012 324.602 231.93 326.617 231.93ZM326.336 262.656C325.07 262.656 323.805 262.668 322.539 262.691C321.273 262.691 320.043 262.727 318.848 262.797C317.676 262.844 316.551 262.926 315.473 263.043C314.395 263.16 313.422 263.312 312.555 263.5V276.859C313.023 277.023 313.621 277.211 314.348 277.422C315.098 277.633 316.035 277.832 317.16 278.02C318.285 278.207 319.633 278.371 321.203 278.512C322.773 278.629 324.625 278.688 326.758 278.688C329.383 278.688 331.738 278.477 333.824 278.055C335.934 277.633 337.703 277.07 339.133 276.367C340.586 275.664 341.699 274.855 342.473 273.941C343.246 273.004 343.633 272.031 343.633 271.023V268C343.633 266.898 343.141 265.996 342.156 265.293C341.172 264.59 339.871 264.051 338.254 263.676C336.637 263.277 334.785 263.008 332.699 262.867C330.637 262.727 328.516 262.656 326.336 262.656ZM312.555 253.938C314.008 254.219 315.66 254.406 317.512 254.5C319.387 254.594 321.508 254.641 323.875 254.641C325.914 254.641 327.941 254.57 329.957 254.43C331.973 254.266 333.789 254.008 335.406 253.656C337.023 253.281 338.336 252.789 339.344 252.18C340.352 251.547 340.867 250.75 340.891 249.789V247.539C340.891 246.531 340.645 245.57 340.152 244.656C339.684 243.719 338.887 242.898 337.762 242.195C336.66 241.492 335.207 240.93 333.402 240.508C331.598 240.086 329.383 239.875 326.758 239.875C324.625 239.875 322.773 239.945 321.203 240.086C319.633 240.203 318.285 240.355 317.16 240.543C316.035 240.73 315.098 240.93 314.348 241.141C313.621 241.352 313.023 241.539 312.555 241.703V253.938ZM372.883 286H363.953V245.922H372.883V286ZM368.453 232C370.188 232 371.559 232.293 372.566 232.879C373.574 233.441 374.078 234.344 374.078 235.586V237.344C374.078 238.469 373.574 239.277 372.566 239.77C371.559 240.262 370.188 240.508 368.453 240.508C366.789 240.508 365.441 240.262 364.41 239.77C363.402 239.277 362.898 238.469 362.898 237.344V235.586C362.898 234.344 363.402 233.441 364.41 232.879C365.441 232.293 366.789 232 368.453 232ZM410.5 245.922C411.695 245.922 413.137 245.98 414.824 246.098C416.512 246.215 418.258 246.426 420.062 246.73C421.891 247.012 423.695 247.422 425.477 247.961C427.258 248.477 428.852 249.145 430.258 249.965C431.688 250.785 432.836 251.781 433.703 252.953C434.594 254.102 435.039 255.461 435.039 257.031V268.914H394.75V277.914C397.586 278.312 400.316 278.594 402.941 278.758C405.566 278.898 408.086 278.969 410.5 278.969C414.18 278.969 417.508 278.828 420.484 278.547C423.484 278.266 426.074 277.949 428.254 277.598C430.762 277.199 433.023 276.742 435.039 276.227V284.031C430.586 284.734 426.285 285.238 422.137 285.543C418.012 285.848 414.133 286 410.5 286C406.844 286 403.527 285.906 400.551 285.719C397.574 285.508 395.02 285.273 392.887 285.016C390.402 284.734 388.164 284.406 386.172 284.031V257.031C386.172 255.461 386.559 254.102 387.332 252.953C388.105 251.781 389.137 250.785 390.426 249.965C391.715 249.145 393.191 248.477 394.855 247.961C396.543 247.422 398.289 247.012 400.094 246.73C401.898 246.426 403.691 246.215 405.473 246.098C407.277 245.98 408.953 245.922 410.5 245.922ZM394.75 263.289H426.32V259.211C426.32 258.25 426.086 257.43 425.617 256.75C425.148 256.047 424.516 255.461 423.719 254.992C422.945 254.523 422.031 254.148 420.977 253.867C419.945 253.562 418.867 253.34 417.742 253.199C416.617 253.035 415.48 252.93 414.332 252.883C413.207 252.836 412.141 252.812 411.133 252.812C410.078 252.812 408.941 252.836 407.723 252.883C406.527 252.93 405.32 253.035 404.102 253.199C402.883 253.363 401.711 253.598 400.586 253.902C399.461 254.184 398.465 254.57 397.598 255.062C396.73 255.531 396.039 256.117 395.523 256.82C395.008 257.5 394.75 258.32 394.75 259.281V263.289ZM446.992 256.961C446.898 256.211 446.676 255.578 446.324 255.062C445.996 254.547 445.633 254.125 445.234 253.797C444.789 253.398 444.297 253.07 443.758 252.812L447.695 245.922C448.562 246.227 449.43 246.637 450.297 247.152C451.023 247.598 451.785 248.172 452.582 248.875C453.402 249.555 454.117 250.398 454.727 251.406C455.898 250.656 457.094 249.953 458.312 249.297C459.555 248.617 460.844 248.031 462.18 247.539C463.539 247.047 464.957 246.66 466.434 246.379C467.934 246.074 469.539 245.922 471.25 245.922C474.859 245.922 477.953 246.227 480.531 246.836C483.133 247.422 485.254 248.312 486.895 249.508C488.559 250.68 489.777 252.145 490.551 253.902C491.324 255.66 491.711 257.711 491.711 260.055V286H482.5V262.234C482.5 260.922 482.324 259.797 481.973 258.859C481.621 257.898 481.141 257.09 480.531 256.434C479.945 255.754 479.254 255.203 478.457 254.781C477.66 254.359 476.828 254.043 475.961 253.832C475.117 253.598 474.25 253.445 473.359 253.375C472.469 253.281 471.625 253.234 470.828 253.234C469.328 253.234 467.898 253.34 466.539 253.551C465.18 253.762 463.891 254.055 462.672 254.43C461.453 254.781 460.305 255.203 459.227 255.695C458.148 256.188 457.141 256.703 456.203 257.242V286H446.992V256.961ZM512.242 245.781C512.102 246.883 512.02 248.031 511.996 249.227C511.973 250.398 511.961 251.57 511.961 252.742C511.961 255.883 512.148 258.742 512.523 261.32C512.922 263.898 513.578 266.242 514.492 268.352C515.406 270.461 516.602 272.371 518.078 274.082C519.578 275.77 521.43 277.305 523.633 278.688C525.812 277.305 527.641 275.77 529.117 274.082C530.617 272.371 531.824 270.461 532.738 268.352C533.652 266.242 534.309 263.898 534.707 261.32C535.105 258.742 535.305 255.883 535.305 252.742C535.305 251.57 535.281 250.398 535.234 249.227C535.188 248.031 535.094 246.883 534.953 245.781C537.039 245.898 538.891 246.051 540.508 246.238C542.125 246.426 543.508 246.613 544.656 246.801C545.969 247.035 547.141 247.258 548.172 247.469V255.625C547.469 255.32 546.812 255.086 546.203 254.922C545.617 254.734 545.102 254.594 544.656 254.5C544.141 254.406 543.672 254.336 543.25 254.289C543.156 257.312 542.945 260.078 542.617 262.586C542.312 265.07 541.832 267.344 541.176 269.406C540.543 271.469 539.723 273.355 538.715 275.066C537.707 276.754 536.488 278.336 535.059 279.812C533.652 281.289 532 282.684 530.102 283.996C528.203 285.285 526.047 286.562 523.633 287.828C521.219 286.562 519.062 285.285 517.164 283.996C515.266 282.684 513.602 281.289 512.172 279.812C510.742 278.336 509.523 276.754 508.516 275.066C507.508 273.355 506.676 271.469 506.02 269.406C505.387 267.344 504.895 265.07 504.543 262.586C504.215 260.102 504.016 257.336 503.945 254.289C503.523 254.336 503.055 254.406 502.539 254.5C502.094 254.594 501.566 254.734 500.957 254.922C500.371 255.086 499.727 255.32 499.023 255.625V247.469C500.008 247.258 501.168 247.035 502.504 246.801C503.629 246.613 505.012 246.426 506.652 246.238C508.293 246.051 510.156 245.898 512.242 245.781ZM581.359 245.922C582.555 245.922 583.996 245.98 585.684 246.098C587.371 246.215 589.117 246.426 590.922 246.73C592.75 247.012 594.555 247.422 596.336 247.961C598.117 248.477 599.711 249.145 601.117 249.965C602.547 250.785 603.695 251.781 604.562 252.953C605.453 254.102 605.898 255.461 605.898 257.031V268.914H565.609V277.914C568.445 278.312 571.176 278.594 573.801 278.758C576.426 278.898 578.945 278.969 581.359 278.969C585.039 278.969 588.367 278.828 591.344 278.547C594.344 278.266 596.934 277.949 599.113 277.598C601.621 277.199 603.883 276.742 605.898 276.227V284.031C601.445 284.734 597.145 285.238 592.996 285.543C588.871 285.848 584.992 286 581.359 286C577.703 286 574.387 285.906 571.41 285.719C568.434 285.508 565.879 285.273 563.746 285.016C561.262 284.734 559.023 284.406 557.031 284.031V257.031C557.031 255.461 557.418 254.102 558.191 252.953C558.965 251.781 559.996 250.785 561.285 249.965C562.574 249.145 564.051 248.477 565.715 247.961C567.402 247.422 569.148 247.012 570.953 246.73C572.758 246.426 574.551 246.215 576.332 246.098C578.137 245.98 579.812 245.922 581.359 245.922ZM565.609 263.289H597.18V259.211C597.18 258.25 596.945 257.43 596.477 256.75C596.008 256.047 595.375 255.461 594.578 254.992C593.805 254.523 592.891 254.148 591.836 253.867C590.805 253.562 589.727 253.34 588.602 253.199C587.477 253.035 586.34 252.93 585.191 252.883C584.066 252.836 583 252.812 581.992 252.812C580.938 252.812 579.801 252.836 578.582 252.883C577.387 252.93 576.18 253.035 574.961 253.199C573.742 253.363 572.57 253.598 571.445 253.902C570.32 254.184 569.324 254.57 568.457 255.062C567.59 255.531 566.898 256.117 566.383 256.82C565.867 257.5 565.609 258.32 565.609 259.281V263.289ZM617.852 256.961C617.758 256.211 617.535 255.578 617.184 255.062C616.855 254.547 616.492 254.125 616.094 253.797C615.648 253.398 615.156 253.07 614.617 252.812L618.555 245.922C619.422 246.227 620.289 246.637 621.156 247.152C621.883 247.598 622.645 248.172 623.441 248.875C624.262 249.555 624.977 250.398 625.586 251.406C626.758 250.656 627.953 249.953 629.172 249.297C630.414 248.617 631.703 248.031 633.039 247.539C634.398 247.047 635.816 246.66 637.293 246.379C638.793 246.074 640.398 245.922 642.109 245.922C645.719 245.922 648.812 246.227 651.391 246.836C653.992 247.422 656.113 248.312 657.754 249.508C659.418 250.68 660.637 252.145 661.41 253.902C662.184 255.66 662.57 257.711 662.57 260.055V286H653.359V262.234C653.359 260.922 653.184 259.797 652.832 258.859C652.48 257.898 652 257.09 651.391 256.434C650.805 255.754 650.113 255.203 649.316 254.781C648.52 254.359 647.688 254.043 646.82 253.832C645.977 253.598 645.109 253.445 644.219 253.375C643.328 253.281 642.484 253.234 641.688 253.234C640.188 253.234 638.758 253.34 637.398 253.551C636.039 253.762 634.75 254.055 633.531 254.43C632.312 254.781 631.164 255.203 630.086 255.695C629.008 256.188 628 256.703 627.062 257.242V286H617.852V256.961ZM683.734 286H674.805V245.922H683.734V286ZM679.305 232C681.039 232 682.41 232.293 683.418 232.879C684.426 233.441 684.93 234.344 684.93 235.586V237.344C684.93 238.469 684.426 239.277 683.418 239.77C682.41 240.262 681.039 240.508 679.305 240.508C677.641 240.508 676.293 240.262 675.262 239.77C674.254 239.277 673.75 238.469 673.75 237.344V235.586C673.75 234.344 674.254 233.441 675.262 232.879C676.293 232.293 677.641 232 679.305 232ZM719.102 245.922C721.164 245.922 723.32 246.156 725.57 246.625C727.844 247.094 730.047 247.703 732.18 248.453V232.492H741.391V283.258C740.148 283.633 738.66 283.984 736.926 284.312C735.215 284.641 733.375 284.934 731.406 285.191C729.438 285.426 727.387 285.625 725.254 285.789C723.145 285.93 721.094 286 719.102 286C715.492 286 712.27 285.754 709.434 285.262C706.598 284.746 704.195 283.961 702.227 282.906C700.258 281.852 698.758 280.516 697.727 278.898C696.695 277.281 696.18 275.359 696.18 273.133V258.789C696.18 256.562 696.695 254.641 697.727 253.023C698.758 251.406 700.258 250.07 702.227 249.016C704.195 247.961 706.598 247.188 709.434 246.695C712.27 246.18 715.492 245.922 719.102 245.922ZM721.633 279.461C722.57 279.461 723.52 279.414 724.48 279.32C725.465 279.227 726.414 279.098 727.328 278.934C728.266 278.77 729.145 278.582 729.965 278.371C730.809 278.16 731.547 277.938 732.18 277.703V255.625C730.562 254.852 728.898 254.219 727.188 253.727C725.5 253.211 723.648 252.953 721.633 252.953C720.18 252.953 718.762 252.988 717.379 253.059C716.02 253.105 714.742 253.234 713.547 253.445C712.352 253.633 711.25 253.914 710.242 254.289C709.234 254.641 708.367 255.121 707.641 255.73C706.938 256.34 706.387 257.09 705.988 257.98C705.59 258.871 705.391 259.938 705.391 261.18V271.516C705.391 273.414 705.824 274.902 706.691 275.98C707.582 277.035 708.766 277.82 710.242 278.336C711.719 278.852 713.441 279.168 715.41 279.285C717.379 279.402 719.453 279.461 721.633 279.461ZM776.336 245.289C778.305 245.289 780.262 245.383 782.207 245.57C784.176 245.758 786.062 246.062 787.867 246.484C789.672 246.906 791.359 247.434 792.93 248.066C794.5 248.699 795.859 249.461 797.008 250.352C798.18 251.242 799.094 252.273 799.75 253.445C800.406 254.594 800.734 255.883 800.734 257.312V275.523C800.734 276.789 800.406 277.949 799.75 279.004C799.094 280.059 798.18 281.008 797.008 281.852C795.859 282.672 794.5 283.387 792.93 283.996C791.359 284.605 789.672 285.109 787.867 285.508C786.062 285.906 784.176 286.199 782.207 286.387C780.238 286.598 778.281 286.703 776.336 286.703C774.391 286.703 772.434 286.598 770.465 286.387C768.52 286.199 766.645 285.906 764.84 285.508C763.035 285.109 761.348 284.605 759.777 283.996C758.23 283.387 756.871 282.672 755.699 281.852C754.551 281.008 753.648 280.07 752.992 279.039C752.336 277.984 752.008 276.812 752.008 275.523V257.312C752.008 255.883 752.336 254.594 752.992 253.445C753.648 252.273 754.551 251.242 755.699 250.352C756.871 249.461 758.23 248.699 759.777 248.066C761.348 247.434 763.035 246.906 764.84 246.484C766.645 246.062 768.52 245.758 770.465 245.57C772.434 245.383 774.391 245.289 776.336 245.289ZM760.938 273.273C760.938 274.352 761.383 275.289 762.273 276.086C763.188 276.859 764.371 277.516 765.824 278.055C767.277 278.57 768.918 278.957 770.746 279.215C772.598 279.473 774.461 279.602 776.336 279.602C778.305 279.602 780.203 279.461 782.031 279.18C783.883 278.898 785.523 278.5 786.953 277.984C788.383 277.445 789.52 276.789 790.363 276.016C791.23 275.219 791.664 274.305 791.664 273.273V258.648C791.664 257.641 791.23 256.738 790.363 255.941C789.52 255.121 788.383 254.441 786.953 253.902C785.523 253.34 783.883 252.918 782.031 252.637C780.203 252.332 778.305 252.18 776.336 252.18C774.461 252.18 772.598 252.32 770.746 252.602C768.918 252.859 767.277 253.258 765.824 253.797C764.371 254.336 763.188 255.016 762.273 255.836C761.383 256.633 760.938 257.57 760.938 258.648V273.273ZM831.602 245.922C834.391 245.922 837.109 246.098 839.758 246.449C842.406 246.777 844.785 247.352 846.895 248.172C849.004 248.969 850.738 250.059 852.098 251.441C853.457 252.824 854.266 254.547 854.523 256.609L846.367 258.859C846.367 257.641 845.945 256.633 845.102 255.836C844.281 255.016 843.18 254.383 841.797 253.938C840.438 253.469 838.867 253.141 837.086 252.953C835.305 252.766 833.477 252.672 831.602 252.672C829.797 252.672 828.004 252.766 826.223 252.953C824.465 253.117 822.883 253.434 821.477 253.902C820.094 254.348 818.969 254.969 818.102 255.766C817.258 256.562 816.836 257.594 816.836 258.859V263.148H854.523V275.312C854.523 276.695 854.219 277.926 853.609 279.004C853 280.059 852.156 280.984 851.078 281.781C850 282.555 848.723 283.223 847.246 283.785C845.793 284.324 844.211 284.758 842.5 285.086C840.812 285.414 839.031 285.648 837.156 285.789C835.305 285.93 833.453 286 831.602 286C828.766 286 826.023 285.836 823.375 285.508C820.727 285.156 818.348 284.582 816.238 283.785C814.129 282.965 812.395 281.875 811.035 280.516C809.699 279.133 808.914 277.398 808.68 275.312L816.836 273.062C816.836 274.352 817.258 275.395 818.102 276.191C818.969 276.988 820.094 277.609 821.477 278.055C822.883 278.5 824.465 278.805 826.223 278.969C828.004 279.109 829.797 279.18 831.602 279.18C833.477 279.18 835.305 279.098 837.086 278.934C838.867 278.746 840.438 278.43 841.797 277.984C843.18 277.516 844.281 276.895 845.102 276.121C845.945 275.324 846.367 274.305 846.367 273.062V268.773H808.68V256.609C808.68 255.227 808.984 254.008 809.594 252.953C810.203 251.875 811.035 250.949 812.09 250.176C813.168 249.379 814.434 248.711 815.887 248.172C817.34 247.609 818.91 247.164 820.598 246.836C822.309 246.508 824.09 246.273 825.941 246.133C827.816 245.992 829.703 245.922 831.602 245.922ZM904.445 274.188C905.289 274.188 906.121 274.258 906.941 274.398C907.785 274.539 908.535 274.75 909.191 275.031C909.848 275.312 910.375 275.676 910.773 276.121C911.195 276.566 911.406 277.094 911.406 277.703V282.836C911.406 283.398 911.195 283.879 910.773 284.277C910.375 284.676 909.848 285.004 909.191 285.262C908.535 285.52 907.785 285.707 906.941 285.824C906.121 285.941 905.289 286 904.445 286C903.602 286 902.77 285.941 901.949 285.824C901.129 285.707 900.391 285.52 899.734 285.262C899.078 285.004 898.551 284.676 898.152 284.277C897.754 283.879 897.555 283.398 897.555 282.836V277.703C897.555 277.094 897.754 276.566 898.152 276.121C898.551 275.676 899.078 275.312 899.734 275.031C900.391 274.75 901.129 274.539 901.949 274.398C902.77 274.258 903.602 274.188 904.445 274.188ZM908.805 232.562V268.422H900.086V232.562H908.805Z" fill="black" fill-opacity="0.72"/>
<defs>
<linearGradient id="paint0_linear" x1="92.5" y1="559" x2="1508.5" y2="565" gradientUnits="userSpaceOnUse">
<stop stop-color="#614CD4"/>
<stop offset="1" stop-color="#F7931E"/>
</linearGradient>
<linearGradient id="paint1_linear" x1="1542.61" y1="325.569" x2="1578.11" y2="261.493" gradientUnits="userSpaceOnUse">
<stop offset="0.01" stop-color="#CCCCCC" stop-opacity="0"/>
<stop offset="1" stop-color="#F15A24"/>
</linearGradient>
<linearGradient id="paint2_linear" x1="36989.1" y1="13725.4" x2="38214" y2="9809.74" gradientUnits="userSpaceOnUse">
<stop offset="0.01" stop-color="#CCCCCC" stop-opacity="0"/>
<stop offset="1" stop-color="#F15A24"/>
</linearGradient>
<clipPath id="clip0">
<rect width="1920" height="320" fill="white" transform="translate(0 280)"/>
</clipPath>
</defs>
</svg>
